<?xml version="1.0" encoding="UTF-8"?>
<svg width="24" height="24" viewBox="0 0 24 24" fill="none" xmlns="http://www.w3.org/2000/svg">
  <path d="M6.05023 2C6.05023 2 2.00023 5.75 2.00023 11.75C2.00023 17.75 8.00023 22 8.00023 22C8.00023 22 14.0002 17.75 14.0002 11.75C14.0002 5.75 9.95023 2 9.95023 2C9.95023 2 9.00023 3 8.00023 3C7.00023 3 6.05023 2 6.05023 2Z" fill="#68B984"/>
  <path d="M8 22C8 22 14 17.75 14 11.75C14 5.75 9.95 2 9.95 2C9.95 2 9 3 8 3" stroke="#3C6255" stroke-width="1.5" stroke-linecap="round" stroke-linejoin="round"/>
</svg> 