<?xml version="1.0" encoding="UTF-8"?>
<svg width="100" height="100" viewBox="0 0 100 100" fill="none" xmlns="http://www.w3.org/2000/svg">
  <g transform="translate(0, 20)">
    <!-- Left leaf -->
    <path d="M15 30C15 30 5 15 25 15C45 15 35 30 35 30C35 30 45 45 25 45C5 45 15 30 15 30Z" fill="#68B984"/>
    
    <!-- Center leaf -->
    <path d="M50 0C50 0 40 -15 60 -15C80 -15 70 0 70 0C70 0 80 15 60 15C40 15 50 0 50 0Z" fill="#68B984"/>
    
    <!-- Right leaf -->
    <path d="M85 30C85 30 75 15 95 15C115 15 105 30 105 30C105 30 115 45 95 45C75 45 85 30 85 30Z" fill="#68B984"/>
  </g>
</svg> 